<svg width="50" height="51" viewBox="0 0 50 51" fill="none" xmlns="http://www.w3.org/2000/svg">
<path fill-rule="evenodd" clip-rule="evenodd" d="M11.0743 40.5C10.9669 40.5 10.752 40.5 10.6446 40.3889C10.2149 40.1667 10 39.8333 10 39.3889V20.5C10 14.9444 14.2972 10.5 19.6686 10.5H30.4116C35.783 10.5 40.0802 14.9444 40.0802 20.5V24.9444C40.0802 30.5 35.783 34.9444 30.4116 34.9444H25.3624C20.4206 34.9444 15.5863 36.8333 11.8263 40.2778C11.6114 40.3889 11.2892 40.5 11.0743 40.5ZM25.3624 33.4444C20.3352 33.4444 15.425 35.2581 11.5 38.5679V20.5C11.5 15.7248 15.1728 12 19.6686 12H30.4116C34.9074 12 38.5802 15.7248 38.5802 20.5V24.9444C38.5802 29.7196 34.9074 33.4444 30.4116 33.4444H25.3624ZM21.0294 23.7353C21.7604 23.7353 22.3529 23.1427 22.3529 22.4118C22.3529 21.6808 21.7604 21.0882 21.0294 21.0882C20.2984 21.0882 19.7059 21.6808 19.7059 22.4118C19.7059 23.1427 20.2984 23.7353 21.0294 23.7353ZM26.7647 22.4118C26.7647 23.1427 26.1721 23.7353 25.4412 23.7353C24.7102 23.7353 24.1176 23.1427 24.1176 22.4118C24.1176 21.6808 24.7102 21.0882 25.4412 21.0882C26.1721 21.0882 26.7647 21.6808 26.7647 22.4118ZM29.8529 23.7353C30.5839 23.7353 31.1765 23.1427 31.1765 22.4118C31.1765 21.6808 30.5839 21.0882 29.8529 21.0882C29.122 21.0882 28.5294 21.6808 28.5294 22.4118C28.5294 23.1427 29.122 23.7353 29.8529 23.7353Z" fill="black"/>
</svg>
